:SAMPLES-PER-SECOND 30
:FULLY-SPECIFIED
:DEGREES
1
root  -63.4732 34.0847 31.9779 -171.307 55.7323 176.548
RightUpLeg  3.07783 -9.99958 -2.1816
RightLeg  3.10741 -0.487503 0.00566079
RightFoot  -6.92433 -0.0183911 0.245702
RightToes  -20.5411 -0.0847436 -0.181509
Spine  -2.25568 0.338398 -0.146638
Spine1  -4.45349 0.617171 0.554016
HEad  -76.7438 -0.491241 -3.32129
LeftShoulder1  -1.94126e-019 -3.10601e-018 -2.51263e-017
LeftArm  -7.09604 18.3502 -79.8308
LeftForeArm  31.7016 -28.0249 -4.46293
LeftHand  -0.465622 -1.93003 7.46966
RightShoulder  -4.96962e-017 0 -2.36833e-017
RightArm  -29.3196 -5.34319 62.4884
RightForeArm  52.8283 70.7269 26.6678
RightHand  -0.00311626 -5.54736 -11.6378
LeftUpLeg  -32.5821 5.12217 -1.63788
LeftLeg  54.1007 15.9356 18.362
LeftFoot  1.80785 -0.02119 0.955559
LeftToes  -23.3073 1.87998e-006 4.79886e-008
2
root  -63.0733 33.9517 31.5336 -171.661 55.252 175.58
RightUpLeg  3.35995 -9.34327 -2.81335
RightLeg  3.78849 -1.76437 -0.00226894
RightFoot  -8.03001 -0.00779378 0.445024
RightToes  -20.2548 -0.0847436 -0.181509
Spine  -2.01757 0.611546 -0.497519
Spine1  -3.98997 1.14509 -0.153077
HEad  -77.2541 -1.18323 -3.37714
LeftShoulder1  -1.94126e-019 -3.10601e-018 -2.51263e-017
LeftArm  -8.662 19.4947 -80.1133
LeftForeArm  32.4673 -24.0536 -3.8092
LeftHand  -0.467566 -2.09122 7.4519
RightShoulder  -4.96962e-017 0 -2.36833e-017
RightArm  -27.2163 -6.76646 63.631
RightForeArm  53.3578 69.9036 25.0878
RightHand  -0.0903666 -4.69577 -12.5702
LeftUpLeg  -35.9068 4.89242 -2.72024
LeftLeg  52.3748 16.091 17.4968
LeftFoot  2.13928 -0.0291779 1.07972
LeftToes  -24.6875 1.87998e-006 4.79886e-008
3
root  -62.6394 33.7883 31.0283 -171.827 54.7699 174.674
RightUpLeg  3.75706 -9.01186 -3.49308
RightLeg  4.21509 -2.76042 -0.0244598
RightFoot  -9.04329 0.00643896 0.64249
RightToes  -20.1171 -0.0847436 -0.181509
Spine  -1.81884 0.855514 -0.796946
Spine1  -3.6109 1.63415 -0.754838
HEad  -77.7844 -1.75513 -3.38826
LeftShoulder1  -1.94126e-019 -3.10601e-018 -2.51263e-017
LeftArm  -10.6835 20.8206 -80.4043
LeftForeArm  32.6477 -19.4195 -3.08097
LeftHand  -0.460743 -1.9516 7.47526
RightShoulder  -4.96962e-017 0 -2.36833e-017
RightArm  -24.311 -8.41292 64.7666
RightForeArm  51.8096 68.5892 23.2436
RightHand  -0.101316 -4.58298 -12.4267
LeftUpLeg  -38.8104 4.08065 -3.39498
LeftLeg  48.9658 16.5935 16.0808
LeftFoot  2.09268 -0.0263958 1.03647
LeftToes  -24.9763 1.87998e-006 4.79886e-008
4
root  -62.1595 33.5867 30.4691 -171.508 54.3989 174.192
RightUpLeg  4.08738 -8.679 -3.9593
RightLeg  4.73316 -3.64224 -0.0653455
RightFoot  -10.0156 0.0249851 0.850663
RightToes  -20.585 -0.0847436 -0.181509
Spine  -1.5547 1.16116 -1.16343
Spine1  -3.10007 2.26227 -1.49927
HEad  -78.8274 -2.37896 -2.88514
LeftShoulder1  -1.94126e-019 -3.10601e-018 -2.51263e-017
LeftArm  -12.6208 22.0038 -80.1032
LeftForeArm  32.749 -15.5343 -2.51229
LeftHand  -0.431797 -2.02433 6.95378
RightShoulder  -4.96962e-017 0 -2.36833e-017
RightArm  -21.4042 -9.93247 66.4611
RightForeArm  49.1092 65.9369 20.1926
RightHand  -0.112771 -4.44338 -12.0197
LeftUpLeg  -41.0823 2.61479 -3.15296
LeftLeg  43.7895 16.1292 13.1631
LeftFoot  2.02551 -0.0191848 0.924392
LeftToes  -25.8096 1.87998e-006 4.79886e-008
5
root  -61.6443 33.3544 29.8525 -170.704 54.4182 174.067
RightUpLeg  3.74423 -7.71436 -4.23742
RightLeg  6.29061 -4.66728 -0.210616
RightFoot  -11.104 0.0542668 1.12919
RightToes  -21.232 -0.0884324 -0.186653
Spine  -1.34021 1.47264 -1.452
Spine1  -2.69203 2.9376 -2.09101
HEad  -79.8049 -3.07101 -2.35853
LeftShoulder1  -1.94126e-019 -3.10601e-018 -2.51263e-017
LeftArm  -14.9379 23.4112 -79.714
LeftForeArm  33.2326 -12.4662 -2.06635
LeftHand  -0.404671 -2.03146 6.52285
RightShoulder  -4.96962e-017 0 -2.36833e-017
RightArm  -17.824 -11.0549 68.2227
RightForeArm  46.9771 62.0273 16.6754
RightHand  -0.155406 -3.82574 -10.5312
LeftUpLeg  -42.8043 0.3395 -1.96361
LeftLeg  37.6697 14.5888 9.63214
LeftFoot  1.99504 -0.0110918 0.798603
LeftToes  -27.0129 1.87998e-006 4.79886e-008
6
root  -61.0606 33.1178 29.116 -169.795 54.2646 174.397
RightUpLeg  3.25436 -6.81761 -4.40407
RightLeg  9.15251 -5.65539 -0.538681
RightFoot  -11.7696 0.0851112 1.40228
RightToes  -23.3263 -0.100767 -0.203014
Spine  -1.15904 1.76385 -1.56071
Spine1  -2.33989 3.64009 -2.34021
HEad  -80.5759 -3.57257 -2.01923
LeftShoulder1  -1.94126e-019 -3.10601e-018 -2.51263e-017
LeftArm  -17.0361 25.2385 -79.4762
LeftForeArm  33.7363 -11.2362 -1.93074
LeftHand  -0.410261 -1.88321 6.73389
RightShoulder  -4.96962e-017 0 -2.36833e-017
RightArm  -14.474 -12.1635 69.9589
RightForeArm  46.699 57.0048 13.2326
RightHand  -0.183246 -2.99087 -8.31799
LeftUpLeg  -43.9043 -3.5769 0.291812
LeftLeg  32.6113 13.2364 7.2077
LeftFoot  2.49994 -0.015274 0.861577
LeftToes  -28.5567 1.87998e-006 4.79886e-008
7
root  -60.3865 32.9157 28.2219 -169.274 54.2967 174.507
RightUpLeg  2.63481 -5.64592 -4.89081
RightLeg  13.1118 -6.58222 -1.08888
RightFoot  -11.6688 0.10461 1.60622
RightToes  -27.3492 -0.1261 -0.233127
Spine  -0.98925 2.11468 -1.73056
Spine1  -2.00542 4.49061 -2.74011
HEad  -81.1736 -3.97311 -1.59912
LeftShoulder1  -1.94126e-019 -3.10601e-018 -2.51263e-017
LeftArm  -19.6723 26.8683 -79.1192
LeftForeArm  34.1847 -9.95375 -1.74129
LeftHand  -0.415062 -1.71436 6.95946
RightShoulder  -4.96962e-017 0 -2.36833e-017
RightArm  -11.8806 -13.2792 71.9083
RightForeArm  49.7451 51.1476 10.0986
RightHand  -0.220731 -0.470723 -5.18924
LeftUpLeg  -44.3656 -6.53648 1.52179
LeftLeg  30.5755 11.2745 5.65843
LeftFoot  9.04262 -0.163781 2.23252
LeftToes  -26.585 1.87998e-006 4.79886e-008
8
root  -59.594 32.7436 27.1523 -169.524 54.475 174.384
RightUpLeg  1.99559 -4.88368 -5.76319
RightLeg  18.6392 -7.07267 -1.88381
RightFoot  -10.2863 0.0893516 1.58026
RightToes  -35.511 -0.183652 -0.288386
Spine  -0.805727 2.45496 -1.93108
Spine1  -1.65194 5.30031 -3.19791
HEad  -81.1975 -4.33816 -1.00435
LeftShoulder1  -1.94126e-019 -3.10601e-018 -2.51263e-017
LeftArm  -21.9727 28.3954 -78.5754
LeftForeArm  34.7338 -8.7281 -1.52517
LeftHand  -0.418691 -1.60942 7.11591
RightShoulder  -4.96962e-017 0 -2.36833e-017
RightArm  -11.3166 -14.4385 74.3126
RightForeArm  55.8605 44.1541 7.20373
RightHand  -0.199789 2.69766 -3.0815
LeftUpLeg  -43.7691 -7.35192 0.883362
LeftLeg  33.5546 10.8871 6.18664
LeftFoot  7.99554 -0.129265 2.011
LeftToes  -25.2562 1.87998e-006 4.79886e-008
